<?xml version="1.0" encoding="utf-8" standalone="no"?>
<!DOCTYPE svg PUBLIC "-//W3C//DTD SVG 1.1//EN"
  "http://www.w3.org/Graphics/SVG/1.1/DTD/svg11.dtd">
<!-- Created with matplotlib (http://matplotlib.org/) -->
<svg height="432pt" version="1.1" viewBox="0 0 576 432" width="576pt" xmlns="http://www.w3.org/2000/svg" xmlns:xlink="http://www.w3.org/1999/xlink">
 <defs>
  <style type="text/css">
*{stroke-linecap:butt;stroke-linejoin:round;stroke-miterlimit:100000;}
  </style>
 </defs>
 <g id="figure_1">
  <g id="patch_1">
   <path d="M 0 432 
L 576 432 
L 576 0 
L 0 0 
z
" style="fill:#ffffff;"/>
  </g>
  <g id="axes_1">
   <g id="patch_2">
    <path d="M 72 388.8 
L 518.4 388.8 
L 518.4 43.2 
L 72 43.2 
z
" style="fill:#ffffff;"/>
   </g>
   <g id="line2d_1">
    <path clip-path="url(#p93797610db)" d="M 109.2 216.994246 
L 146.4 211.824166 
M 220.8 199.495512 
L 258 199.495512 
L 295.2 190.348446 
L 332.4 190.348446 
L 369.6 180.405984 
L 406.8 170.065823 
L 444 162.509551 
L 481.2 151.771692 
" style="fill:none;stroke:#0000ff;stroke-linecap:square;"/>
    <defs>
     <path d="M -3 3 
L 3 -3 
M -3 -3 
L 3 3 
" id="mb6955045e7" style="stroke:#0000ff;stroke-width:0.5;"/>
    </defs>
    <g clip-path="url(#p93797610db)">
     <use style="fill:#0000ff;stroke:#0000ff;stroke-width:0.5;" x="109.2" xlink:href="#mb6955045e7" y="216.99424626"/>
     <use style="fill:#0000ff;stroke:#0000ff;stroke-width:0.5;" x="146.4" xlink:href="#mb6955045e7" y="211.824165708"/>
     <use style="fill:#0000ff;stroke:#0000ff;stroke-width:0.5;" x="220.8" xlink:href="#mb6955045e7" y="199.495512083"/>
     <use style="fill:#0000ff;stroke:#0000ff;stroke-width:0.5;" x="258.0" xlink:href="#mb6955045e7" y="199.495512083"/>
     <use style="fill:#0000ff;stroke:#0000ff;stroke-width:0.5;" x="295.2" xlink:href="#mb6955045e7" y="190.34844649"/>
     <use style="fill:#0000ff;stroke:#0000ff;stroke-width:0.5;" x="332.4" xlink:href="#mb6955045e7" y="190.34844649"/>
     <use style="fill:#0000ff;stroke:#0000ff;stroke-width:0.5;" x="369.6" xlink:href="#mb6955045e7" y="180.40598389"/>
     <use style="fill:#0000ff;stroke:#0000ff;stroke-width:0.5;" x="406.8" xlink:href="#mb6955045e7" y="170.065822785"/>
     <use style="fill:#0000ff;stroke:#0000ff;stroke-width:0.5;" x="444.0" xlink:href="#mb6955045e7" y="162.509551208"/>
     <use style="fill:#0000ff;stroke:#0000ff;stroke-width:0.5;" x="481.2" xlink:href="#mb6955045e7" y="151.7716916"/>
    </g>
   </g>
   <g id="line2d_2">
    <path clip-path="url(#p93797610db)" d="M 72 266.308861 
L 109.2 261.536479 
M 183.6 253.980207 
L 220.8 248.412428 
L 258 248.412428 
L 295.2 241.651554 
L 332.4 241.651554 
L 369.6 233.697583 
L 406.8 225.743613 
L 444 220.175834 
L 481.2 212.221864 
" style="fill:none;stroke:#008000;stroke-linecap:square;"/>
    <defs>
     <path d="M -3 3 
L 3 -3 
M -3 -3 
L 3 3 
" id="m0b7a4acae1" style="stroke:#008000;stroke-width:0.5;"/>
    </defs>
    <g clip-path="url(#p93797610db)">
     <use style="fill:#008000;stroke:#008000;stroke-width:0.5;" x="72.0" xlink:href="#m0b7a4acae1" y="266.308860759"/>
     <use style="fill:#008000;stroke:#008000;stroke-width:0.5;" x="109.2" xlink:href="#m0b7a4acae1" y="261.536478711"/>
     <use style="fill:#008000;stroke:#008000;stroke-width:0.5;" x="183.6" xlink:href="#m0b7a4acae1" y="253.980207135"/>
     <use style="fill:#008000;stroke:#008000;stroke-width:0.5;" x="220.8" xlink:href="#m0b7a4acae1" y="248.412428078"/>
     <use style="fill:#008000;stroke:#008000;stroke-width:0.5;" x="258.0" xlink:href="#m0b7a4acae1" y="248.412428078"/>
     <use style="fill:#008000;stroke:#008000;stroke-width:0.5;" x="295.2" xlink:href="#m0b7a4acae1" y="241.65155351"/>
     <use style="fill:#008000;stroke:#008000;stroke-width:0.5;" x="332.4" xlink:href="#m0b7a4acae1" y="241.65155351"/>
     <use style="fill:#008000;stroke:#008000;stroke-width:0.5;" x="369.6" xlink:href="#m0b7a4acae1" y="233.697583429"/>
     <use style="fill:#008000;stroke:#008000;stroke-width:0.5;" x="406.8" xlink:href="#m0b7a4acae1" y="225.743613349"/>
     <use style="fill:#008000;stroke:#008000;stroke-width:0.5;" x="444.0" xlink:href="#m0b7a4acae1" y="220.175834292"/>
     <use style="fill:#008000;stroke:#008000;stroke-width:0.5;" x="481.2" xlink:href="#m0b7a4acae1" y="212.221864212"/>
    </g>
   </g>
   <g id="line2d_3">
    <path clip-path="url(#p93797610db)" d="M 183.6 124.330495 
L 220.8 118.365017 
L 258 112.39954 
L 295.2 106.434062 
L 332.4 100.468585 
L 369.6 92.514614 
L 406.8 86.549137 
L 444 80.583659 
L 481.2 74.618182 
" style="fill:none;stroke:#ff0000;stroke-linecap:square;"/>
    <defs>
     <path d="M -3 3 
L 3 -3 
M -3 -3 
L 3 3 
" id="me662a69fb9" style="stroke:#ff0000;stroke-width:0.5;"/>
    </defs>
    <g clip-path="url(#p93797610db)">
     <use style="fill:#ff0000;stroke:#ff0000;stroke-width:0.5;" x="183.6" xlink:href="#me662a69fb9" y="124.330494822"/>
     <use style="fill:#ff0000;stroke:#ff0000;stroke-width:0.5;" x="220.8" xlink:href="#me662a69fb9" y="118.365017261"/>
     <use style="fill:#ff0000;stroke:#ff0000;stroke-width:0.5;" x="258.0" xlink:href="#me662a69fb9" y="112.399539701"/>
     <use style="fill:#ff0000;stroke:#ff0000;stroke-width:0.5;" x="295.2" xlink:href="#me662a69fb9" y="106.43406214"/>
     <use style="fill:#ff0000;stroke:#ff0000;stroke-width:0.5;" x="332.4" xlink:href="#me662a69fb9" y="100.46858458"/>
     <use style="fill:#ff0000;stroke:#ff0000;stroke-width:0.5;" x="369.6" xlink:href="#me662a69fb9" y="92.5146144994"/>
     <use style="fill:#ff0000;stroke:#ff0000;stroke-width:0.5;" x="406.8" xlink:href="#me662a69fb9" y="86.549136939"/>
     <use style="fill:#ff0000;stroke:#ff0000;stroke-width:0.5;" x="444.0" xlink:href="#me662a69fb9" y="80.5836593786"/>
     <use style="fill:#ff0000;stroke:#ff0000;stroke-width:0.5;" x="481.2" xlink:href="#me662a69fb9" y="74.6181818182"/>
    </g>
   </g>
   <g id="line2d_4">
    <path clip-path="url(#p93797610db)" d="M 369.6 238.867664 
L 406.8 234.095282 
L 444 226.141312 
L 481.2 151.771692 
" style="fill:none;stroke:#00bfbf;stroke-linecap:square;"/>
    <defs>
     <path d="M -3 3 
L 3 -3 
M -3 -3 
L 3 3 
" id="mde1abc7054" style="stroke:#00bfbf;stroke-width:0.5;"/>
    </defs>
    <g clip-path="url(#p93797610db)">
     <use style="fill:#00bfbf;stroke:#00bfbf;stroke-width:0.5;" x="369.6" xlink:href="#mde1abc7054" y="238.867663982"/>
     <use style="fill:#00bfbf;stroke:#00bfbf;stroke-width:0.5;" x="406.8" xlink:href="#mde1abc7054" y="234.095281933"/>
     <use style="fill:#00bfbf;stroke:#00bfbf;stroke-width:0.5;" x="444.0" xlink:href="#mde1abc7054" y="226.141311853"/>
     <use style="fill:#00bfbf;stroke:#00bfbf;stroke-width:0.5;" x="481.2" xlink:href="#mde1abc7054" y="151.7716916"/>
    </g>
   </g>
   <g id="line2d_5">
    <path clip-path="url(#p93797610db)" d="M 183.6 281.819102 
L 220.8 269.888147 
M 369.6 251.196318 
L 406.8 247.219333 
L 444 240.060759 
L 481.2 212.221864 
" style="fill:none;stroke:#bf00bf;stroke-linecap:square;"/>
    <defs>
     <path d="M -3 3 
L 3 -3 
M -3 -3 
L 3 3 
" id="me8c343d7ed" style="stroke:#bf00bf;stroke-width:0.5;"/>
    </defs>
    <g clip-path="url(#p93797610db)">
     <use style="fill:#bf00bf;stroke:#bf00bf;stroke-width:0.5;" x="183.6" xlink:href="#me8c343d7ed" y="281.819102417"/>
     <use style="fill:#bf00bf;stroke:#bf00bf;stroke-width:0.5;" x="220.8" xlink:href="#me8c343d7ed" y="269.888147296"/>
     <use style="fill:#bf00bf;stroke:#bf00bf;stroke-width:0.5;" x="369.6" xlink:href="#me8c343d7ed" y="251.196317606"/>
     <use style="fill:#bf00bf;stroke:#bf00bf;stroke-width:0.5;" x="406.8" xlink:href="#me8c343d7ed" y="247.219332566"/>
     <use style="fill:#bf00bf;stroke:#bf00bf;stroke-width:0.5;" x="444.0" xlink:href="#me8c343d7ed" y="240.060759494"/>
     <use style="fill:#bf00bf;stroke:#bf00bf;stroke-width:0.5;" x="481.2" xlink:href="#me8c343d7ed" y="212.221864212"/>
    </g>
   </g>
   <g id="line2d_6">
    <path clip-path="url(#p93797610db)" d="M 406.8 203.870196 
L 444 199.893211 
L 481.2 195.120829 
" style="fill:none;stroke:#bfbf00;stroke-linecap:square;"/>
    <defs>
     <path d="M -3 3 
L 3 -3 
M -3 -3 
L 3 3 
" id="mf4fc0b92ca" style="stroke:#bfbf00;stroke-width:0.5;"/>
    </defs>
    <g clip-path="url(#p93797610db)">
     <use style="fill:#bfbf00;stroke:#bfbf00;stroke-width:0.5;" x="406.8" xlink:href="#mf4fc0b92ca" y="203.870195627"/>
     <use style="fill:#bfbf00;stroke:#bfbf00;stroke-width:0.5;" x="444.0" xlink:href="#mf4fc0b92ca" y="199.893210587"/>
     <use style="fill:#bfbf00;stroke:#bfbf00;stroke-width:0.5;" x="481.2" xlink:href="#mf4fc0b92ca" y="195.120828539"/>
    </g>
   </g>
   <g id="line2d_7">
    <path clip-path="url(#p93797610db)" d="M 406.8 226.53901 
L 444 223.357422 
L 481.2 218.982739 
" style="fill:none;stroke:#000000;stroke-linecap:square;"/>
    <defs>
     <path d="M -3 3 
L 3 -3 
M -3 -3 
L 3 3 
" id="m109b4ce40e" style="stroke:#000000;stroke-width:0.5;"/>
    </defs>
    <g clip-path="url(#p93797610db)">
     <use style="stroke:#000000;stroke-width:0.5;" x="406.8" xlink:href="#m109b4ce40e" y="226.539010357"/>
     <use style="stroke:#000000;stroke-width:0.5;" x="444.0" xlink:href="#m109b4ce40e" y="223.357422325"/>
     <use style="stroke:#000000;stroke-width:0.5;" x="481.2" xlink:href="#m109b4ce40e" y="218.98273878"/>
    </g>
   </g>
   <g id="line2d_8">
    <path clip-path="url(#p93797610db)" d="M 444 124.330495 
L 481.2 118.365017 
" style="fill:none;stroke:#0000ff;stroke-linecap:square;"/>
    <g clip-path="url(#p93797610db)">
     <use style="fill:#0000ff;stroke:#0000ff;stroke-width:0.5;" x="444.0" xlink:href="#mb6955045e7" y="124.330494822"/>
     <use style="fill:#0000ff;stroke:#0000ff;stroke-width:0.5;" x="481.2" xlink:href="#mb6955045e7" y="118.365017261"/>
    </g>
   </g>
   <g id="line2d_9">
    <path clip-path="url(#p93797610db)" d="M 444 164.100345 
L 481.2 158.532566 
" style="fill:none;stroke:#008000;stroke-linecap:square;"/>
    <g clip-path="url(#p93797610db)">
     <use style="fill:#008000;stroke:#008000;stroke-width:0.5;" x="444.0" xlink:href="#m0b7a4acae1" y="164.100345224"/>
     <use style="fill:#008000;stroke:#008000;stroke-width:0.5;" x="481.2" xlink:href="#m0b7a4acae1" y="158.532566168"/>
    </g>
   </g>
   <g id="patch_3">
    <path d="M 518.4 388.8 
L 518.4 43.2 
" style="fill:none;stroke:#000000;stroke-linecap:square;stroke-linejoin:miter;"/>
   </g>
   <g id="patch_4">
    <path d="M 72 388.8 
L 518.4 388.8 
" style="fill:none;stroke:#000000;stroke-linecap:square;stroke-linejoin:miter;"/>
   </g>
   <g id="patch_5">
    <path d="M 72 388.8 
L 72 43.2 
" style="fill:none;stroke:#000000;stroke-linecap:square;stroke-linejoin:miter;"/>
   </g>
   <g id="patch_6">
    <path d="M 72 43.2 
L 518.4 43.2 
" style="fill:none;stroke:#000000;stroke-linecap:square;stroke-linejoin:miter;"/>
   </g>
   <g id="matplotlib.axis_1">
    <g id="xtick_1">
     <g id="line2d_10">
      <defs>
       <path d="M 0 0 
L 0 -4 
" id="m98d593b604" style="stroke:#000000;stroke-width:0.5;"/>
      </defs>
      <g>
       <use style="stroke:#000000;stroke-width:0.5;" x="72.0" xlink:href="#m98d593b604" y="388.8"/>
      </g>
     </g>
     <g id="line2d_11">
      <defs>
       <path d="M 0 0 
L 0 4 
" id="mcfb22bcd37" style="stroke:#000000;stroke-width:0.5;"/>
      </defs>
      <g>
       <use style="stroke:#000000;stroke-width:0.5;" x="72.0" xlink:href="#mcfb22bcd37" y="43.2"/>
      </g>
     </g>
     <g id="text_1">
      <!-- 2004 -->
      <defs>
       <path d="M 37.796875 64.3125 
L 12.890625 25.390625 
L 37.796875 25.390625 
z
M 35.203125 72.90625 
L 47.609375 72.90625 
L 47.609375 25.390625 
L 58.015625 25.390625 
L 58.015625 17.1875 
L 47.609375 17.1875 
L 47.609375 0 
L 37.796875 0 
L 37.796875 17.1875 
L 4.890625 17.1875 
L 4.890625 26.703125 
z
" id="BitstreamVeraSans-Roman-34"/>
       <path d="M 19.1875 8.296875 
L 53.609375 8.296875 
L 53.609375 0 
L 7.328125 0 
L 7.328125 8.296875 
Q 12.9375 14.109375 22.625 23.890625 
Q 32.328125 33.6875 34.8125 36.53125 
Q 39.546875 41.84375 41.421875 45.53125 
Q 43.3125 49.21875 43.3125 52.78125 
Q 43.3125 58.59375 39.234375 62.25 
Q 35.15625 65.921875 28.609375 65.921875 
Q 23.96875 65.921875 18.8125 64.3125 
Q 13.671875 62.703125 7.8125 59.421875 
L 7.8125 69.390625 
Q 13.765625 71.78125 18.9375 73 
Q 24.125 74.21875 28.421875 74.21875 
Q 39.75 74.21875 46.484375 68.546875 
Q 53.21875 62.890625 53.21875 53.421875 
Q 53.21875 48.921875 51.53125 44.890625 
Q 49.859375 40.875 45.40625 35.40625 
Q 44.1875 33.984375 37.640625 27.21875 
Q 31.109375 20.453125 19.1875 8.296875 
" id="BitstreamVeraSans-Roman-32"/>
       <path d="M 31.78125 66.40625 
Q 24.171875 66.40625 20.328125 58.90625 
Q 16.5 51.421875 16.5 36.375 
Q 16.5 21.390625 20.328125 13.890625 
Q 24.171875 6.390625 31.78125 6.390625 
Q 39.453125 6.390625 43.28125 13.890625 
Q 47.125 21.390625 47.125 36.375 
Q 47.125 51.421875 43.28125 58.90625 
Q 39.453125 66.40625 31.78125 66.40625 
M 31.78125 74.21875 
Q 44.046875 74.21875 50.515625 64.515625 
Q 56.984375 54.828125 56.984375 36.375 
Q 56.984375 17.96875 50.515625 8.265625 
Q 44.046875 -1.421875 31.78125 -1.421875 
Q 19.53125 -1.421875 13.0625 8.265625 
Q 6.59375 17.96875 6.59375 36.375 
Q 6.59375 54.828125 13.0625 64.515625 
Q 19.53125 74.21875 31.78125 74.21875 
" id="BitstreamVeraSans-Roman-30"/>
      </defs>
      <g transform="translate(56.73 401.918125)scale(0.12 -0.12)">
       <use xlink:href="#BitstreamVeraSans-Roman-32"/>
       <use x="63.623046875" xlink:href="#BitstreamVeraSans-Roman-30"/>
       <use x="127.24609375" xlink:href="#BitstreamVeraSans-Roman-30"/>
       <use x="190.869140625" xlink:href="#BitstreamVeraSans-Roman-34"/>
      </g>
     </g>
    </g>
    <g id="xtick_2">
     <g id="line2d_12">
      <g>
       <use style="stroke:#000000;stroke-width:0.5;" x="146.4" xlink:href="#m98d593b604" y="388.8"/>
      </g>
     </g>
     <g id="line2d_13">
      <g>
       <use style="stroke:#000000;stroke-width:0.5;" x="146.4" xlink:href="#mcfb22bcd37" y="43.2"/>
      </g>
     </g>
     <g id="text_2">
      <!-- 2006 -->
      <defs>
       <path d="M 33.015625 40.375 
Q 26.375 40.375 22.484375 35.828125 
Q 18.609375 31.296875 18.609375 23.390625 
Q 18.609375 15.53125 22.484375 10.953125 
Q 26.375 6.390625 33.015625 6.390625 
Q 39.65625 6.390625 43.53125 10.953125 
Q 47.40625 15.53125 47.40625 23.390625 
Q 47.40625 31.296875 43.53125 35.828125 
Q 39.65625 40.375 33.015625 40.375 
M 52.59375 71.296875 
L 52.59375 62.3125 
Q 48.875 64.0625 45.09375 64.984375 
Q 41.3125 65.921875 37.59375 65.921875 
Q 27.828125 65.921875 22.671875 59.328125 
Q 17.53125 52.734375 16.796875 39.40625 
Q 19.671875 43.65625 24.015625 45.921875 
Q 28.375 48.1875 33.59375 48.1875 
Q 44.578125 48.1875 50.953125 41.515625 
Q 57.328125 34.859375 57.328125 23.390625 
Q 57.328125 12.15625 50.6875 5.359375 
Q 44.046875 -1.421875 33.015625 -1.421875 
Q 20.359375 -1.421875 13.671875 8.265625 
Q 6.984375 17.96875 6.984375 36.375 
Q 6.984375 53.65625 15.1875 63.9375 
Q 23.390625 74.21875 37.203125 74.21875 
Q 40.921875 74.21875 44.703125 73.484375 
Q 48.484375 72.75 52.59375 71.296875 
" id="BitstreamVeraSans-Roman-36"/>
      </defs>
      <g transform="translate(131.13 401.918125)scale(0.12 -0.12)">
       <use xlink:href="#BitstreamVeraSans-Roman-32"/>
       <use x="63.623046875" xlink:href="#BitstreamVeraSans-Roman-30"/>
       <use x="127.24609375" xlink:href="#BitstreamVeraSans-Roman-30"/>
       <use x="190.869140625" xlink:href="#BitstreamVeraSans-Roman-36"/>
      </g>
     </g>
    </g>
    <g id="xtick_3">
     <g id="line2d_14">
      <g>
       <use style="stroke:#000000;stroke-width:0.5;" x="220.8" xlink:href="#m98d593b604" y="388.8"/>
      </g>
     </g>
     <g id="line2d_15">
      <g>
       <use style="stroke:#000000;stroke-width:0.5;" x="220.8" xlink:href="#mcfb22bcd37" y="43.2"/>
      </g>
     </g>
     <g id="text_3">
      <!-- 2008 -->
      <defs>
       <path d="M 31.78125 34.625 
Q 24.75 34.625 20.71875 30.859375 
Q 16.703125 27.09375 16.703125 20.515625 
Q 16.703125 13.921875 20.71875 10.15625 
Q 24.75 6.390625 31.78125 6.390625 
Q 38.8125 6.390625 42.859375 10.171875 
Q 46.921875 13.96875 46.921875 20.515625 
Q 46.921875 27.09375 42.890625 30.859375 
Q 38.875 34.625 31.78125 34.625 
M 21.921875 38.8125 
Q 15.578125 40.375 12.03125 44.71875 
Q 8.5 49.078125 8.5 55.328125 
Q 8.5 64.0625 14.71875 69.140625 
Q 20.953125 74.21875 31.78125 74.21875 
Q 42.671875 74.21875 48.875 69.140625 
Q 55.078125 64.0625 55.078125 55.328125 
Q 55.078125 49.078125 51.53125 44.71875 
Q 48 40.375 41.703125 38.8125 
Q 48.828125 37.15625 52.796875 32.3125 
Q 56.78125 27.484375 56.78125 20.515625 
Q 56.78125 9.90625 50.3125 4.234375 
Q 43.84375 -1.421875 31.78125 -1.421875 
Q 19.734375 -1.421875 13.25 4.234375 
Q 6.78125 9.90625 6.78125 20.515625 
Q 6.78125 27.484375 10.78125 32.3125 
Q 14.796875 37.15625 21.921875 38.8125 
M 18.3125 54.390625 
Q 18.3125 48.734375 21.84375 45.5625 
Q 25.390625 42.390625 31.78125 42.390625 
Q 38.140625 42.390625 41.71875 45.5625 
Q 45.3125 48.734375 45.3125 54.390625 
Q 45.3125 60.0625 41.71875 63.234375 
Q 38.140625 66.40625 31.78125 66.40625 
Q 25.390625 66.40625 21.84375 63.234375 
Q 18.3125 60.0625 18.3125 54.390625 
" id="BitstreamVeraSans-Roman-38"/>
      </defs>
      <g transform="translate(205.53 401.918125)scale(0.12 -0.12)">
       <use xlink:href="#BitstreamVeraSans-Roman-32"/>
       <use x="63.623046875" xlink:href="#BitstreamVeraSans-Roman-30"/>
       <use x="127.24609375" xlink:href="#BitstreamVeraSans-Roman-30"/>
       <use x="190.869140625" xlink:href="#BitstreamVeraSans-Roman-38"/>
      </g>
     </g>
    </g>
    <g id="xtick_4">
     <g id="line2d_16">
      <g>
       <use style="stroke:#000000;stroke-width:0.5;" x="295.2" xlink:href="#m98d593b604" y="388.8"/>
      </g>
     </g>
     <g id="line2d_17">
      <g>
       <use style="stroke:#000000;stroke-width:0.5;" x="295.2" xlink:href="#mcfb22bcd37" y="43.2"/>
      </g>
     </g>
     <g id="text_4">
      <!-- 2010 -->
      <defs>
       <path d="M 12.40625 8.296875 
L 28.515625 8.296875 
L 28.515625 63.921875 
L 10.984375 60.40625 
L 10.984375 69.390625 
L 28.421875 72.90625 
L 38.28125 72.90625 
L 38.28125 8.296875 
L 54.390625 8.296875 
L 54.390625 0 
L 12.40625 0 
z
" id="BitstreamVeraSans-Roman-31"/>
      </defs>
      <g transform="translate(279.93 401.918125)scale(0.12 -0.12)">
       <use xlink:href="#BitstreamVeraSans-Roman-32"/>
       <use x="63.623046875" xlink:href="#BitstreamVeraSans-Roman-30"/>
       <use x="127.24609375" xlink:href="#BitstreamVeraSans-Roman-31"/>
       <use x="190.869140625" xlink:href="#BitstreamVeraSans-Roman-30"/>
      </g>
     </g>
    </g>
    <g id="xtick_5">
     <g id="line2d_18">
      <g>
       <use style="stroke:#000000;stroke-width:0.5;" x="369.6" xlink:href="#m98d593b604" y="388.8"/>
      </g>
     </g>
     <g id="line2d_19">
      <g>
       <use style="stroke:#000000;stroke-width:0.5;" x="369.6" xlink:href="#mcfb22bcd37" y="43.2"/>
      </g>
     </g>
     <g id="text_5">
      <!-- 2012 -->
      <g transform="translate(354.33 401.918125)scale(0.12 -0.12)">
       <use xlink:href="#BitstreamVeraSans-Roman-32"/>
       <use x="63.623046875" xlink:href="#BitstreamVeraSans-Roman-30"/>
       <use x="127.24609375" xlink:href="#BitstreamVeraSans-Roman-31"/>
       <use x="190.869140625" xlink:href="#BitstreamVeraSans-Roman-32"/>
      </g>
     </g>
    </g>
    <g id="xtick_6">
     <g id="line2d_20">
      <g>
       <use style="stroke:#000000;stroke-width:0.5;" x="444.0" xlink:href="#m98d593b604" y="388.8"/>
      </g>
     </g>
     <g id="line2d_21">
      <g>
       <use style="stroke:#000000;stroke-width:0.5;" x="444.0" xlink:href="#mcfb22bcd37" y="43.2"/>
      </g>
     </g>
     <g id="text_6">
      <!-- 2014 -->
      <g transform="translate(428.73 401.918125)scale(0.12 -0.12)">
       <use xlink:href="#BitstreamVeraSans-Roman-32"/>
       <use x="63.623046875" xlink:href="#BitstreamVeraSans-Roman-30"/>
       <use x="127.24609375" xlink:href="#BitstreamVeraSans-Roman-31"/>
       <use x="190.869140625" xlink:href="#BitstreamVeraSans-Roman-34"/>
      </g>
     </g>
    </g>
    <g id="xtick_7">
     <g id="line2d_22">
      <g>
       <use style="stroke:#000000;stroke-width:0.5;" x="518.4" xlink:href="#m98d593b604" y="388.8"/>
      </g>
     </g>
     <g id="line2d_23">
      <g>
       <use style="stroke:#000000;stroke-width:0.5;" x="518.4" xlink:href="#mcfb22bcd37" y="43.2"/>
      </g>
     </g>
     <g id="text_7">
      <!-- 2016 -->
      <g transform="translate(503.13 401.918125)scale(0.12 -0.12)">
       <use xlink:href="#BitstreamVeraSans-Roman-32"/>
       <use x="63.623046875" xlink:href="#BitstreamVeraSans-Roman-30"/>
       <use x="127.24609375" xlink:href="#BitstreamVeraSans-Roman-31"/>
       <use x="190.869140625" xlink:href="#BitstreamVeraSans-Roman-36"/>
      </g>
     </g>
    </g>
    <g id="text_8">
     <!-- Year -->
     <defs>
      <path d="M 41.109375 46.296875 
Q 39.59375 47.171875 37.8125 47.578125 
Q 36.03125 48 33.890625 48 
Q 26.265625 48 22.1875 43.046875 
Q 18.109375 38.09375 18.109375 28.8125 
L 18.109375 0 
L 9.078125 0 
L 9.078125 54.6875 
L 18.109375 54.6875 
L 18.109375 46.1875 
Q 20.953125 51.171875 25.484375 53.578125 
Q 30.03125 56 36.53125 56 
Q 37.453125 56 38.578125 55.875 
Q 39.703125 55.765625 41.0625 55.515625 
z
" id="BitstreamVeraSans-Roman-72"/>
      <path d="M 56.203125 29.59375 
L 56.203125 25.203125 
L 14.890625 25.203125 
Q 15.484375 15.921875 20.484375 11.0625 
Q 25.484375 6.203125 34.421875 6.203125 
Q 39.59375 6.203125 44.453125 7.46875 
Q 49.3125 8.734375 54.109375 11.28125 
L 54.109375 2.78125 
Q 49.265625 0.734375 44.1875 -0.34375 
Q 39.109375 -1.421875 33.890625 -1.421875 
Q 20.796875 -1.421875 13.15625 6.1875 
Q 5.515625 13.8125 5.515625 26.8125 
Q 5.515625 40.234375 12.765625 48.109375 
Q 20.015625 56 32.328125 56 
Q 43.359375 56 49.78125 48.890625 
Q 56.203125 41.796875 56.203125 29.59375 
M 47.21875 32.234375 
Q 47.125 39.59375 43.09375 43.984375 
Q 39.0625 48.390625 32.421875 48.390625 
Q 24.90625 48.390625 20.390625 44.140625 
Q 15.875 39.890625 15.1875 32.171875 
z
" id="BitstreamVeraSans-Roman-65"/>
      <path d="M 34.28125 27.484375 
Q 23.390625 27.484375 19.1875 25 
Q 14.984375 22.515625 14.984375 16.5 
Q 14.984375 11.71875 18.140625 8.90625 
Q 21.296875 6.109375 26.703125 6.109375 
Q 34.1875 6.109375 38.703125 11.40625 
Q 43.21875 16.703125 43.21875 25.484375 
L 43.21875 27.484375 
z
M 52.203125 31.203125 
L 52.203125 0 
L 43.21875 0 
L 43.21875 8.296875 
Q 40.140625 3.328125 35.546875 0.953125 
Q 30.953125 -1.421875 24.3125 -1.421875 
Q 15.921875 -1.421875 10.953125 3.296875 
Q 6 8.015625 6 15.921875 
Q 6 25.140625 12.171875 29.828125 
Q 18.359375 34.515625 30.609375 34.515625 
L 43.21875 34.515625 
L 43.21875 35.40625 
Q 43.21875 41.609375 39.140625 45 
Q 35.0625 48.390625 27.6875 48.390625 
Q 23 48.390625 18.546875 47.265625 
Q 14.109375 46.140625 10.015625 43.890625 
L 10.015625 52.203125 
Q 14.9375 54.109375 19.578125 55.046875 
Q 24.21875 56 28.609375 56 
Q 40.484375 56 46.34375 49.84375 
Q 52.203125 43.703125 52.203125 31.203125 
" id="BitstreamVeraSans-Roman-61"/>
      <path d="M -0.203125 72.90625 
L 10.40625 72.90625 
L 30.609375 42.921875 
L 50.6875 72.90625 
L 61.28125 72.90625 
L 35.5 34.71875 
L 35.5 0 
L 25.59375 0 
L 25.59375 34.71875 
z
" id="BitstreamVeraSans-Roman-59"/>
     </defs>
     <g transform="translate(281.7121875 418.531875)scale(0.12 -0.12)">
      <use xlink:href="#BitstreamVeraSans-Roman-59"/>
      <use x="60.880859375" xlink:href="#BitstreamVeraSans-Roman-65"/>
      <use x="122.404296875" xlink:href="#BitstreamVeraSans-Roman-61"/>
      <use x="183.68359375" xlink:href="#BitstreamVeraSans-Roman-72"/>
     </g>
    </g>
   </g>
   <g id="matplotlib.axis_2">
    <g id="ytick_1">
     <g id="line2d_24">
      <defs>
       <path d="M 0 0 
L 4 0 
" id="m9fa29fe3f8" style="stroke:#000000;stroke-width:0.5;"/>
      </defs>
      <g>
       <use style="stroke:#000000;stroke-width:0.5;" x="72.0" xlink:href="#m9fa29fe3f8" y="388.8"/>
      </g>
     </g>
     <g id="line2d_25">
      <defs>
       <path d="M 0 0 
L -4 0 
" id="mb00ecd3a0a" style="stroke:#000000;stroke-width:0.5;"/>
      </defs>
      <g>
       <use style="stroke:#000000;stroke-width:0.5;" x="518.4" xlink:href="#mb00ecd3a0a" y="388.8"/>
      </g>
     </g>
     <g id="text_9">
      <!-- 0 -->
      <g transform="translate(60.365 392.11125)scale(0.12 -0.12)">
       <use xlink:href="#BitstreamVeraSans-Roman-30"/>
      </g>
     </g>
    </g>
    <g id="ytick_2">
     <g id="line2d_26">
      <g>
       <use style="stroke:#000000;stroke-width:0.5;" x="72.0" xlink:href="#m9fa29fe3f8" y="349.030149597"/>
      </g>
     </g>
     <g id="line2d_27">
      <g>
       <use style="stroke:#000000;stroke-width:0.5;" x="518.4" xlink:href="#mb00ecd3a0a" y="349.030149597"/>
      </g>
     </g>
     <g id="text_10">
      <!-- 100 -->
      <g transform="translate(45.095 352.341399597)scale(0.12 -0.12)">
       <use xlink:href="#BitstreamVeraSans-Roman-31"/>
       <use x="63.623046875" xlink:href="#BitstreamVeraSans-Roman-30"/>
       <use x="127.24609375" xlink:href="#BitstreamVeraSans-Roman-30"/>
      </g>
     </g>
    </g>
    <g id="ytick_3">
     <g id="line2d_28">
      <g>
       <use style="stroke:#000000;stroke-width:0.5;" x="72.0" xlink:href="#m9fa29fe3f8" y="309.260299194"/>
      </g>
     </g>
     <g id="line2d_29">
      <g>
       <use style="stroke:#000000;stroke-width:0.5;" x="518.4" xlink:href="#mb00ecd3a0a" y="309.260299194"/>
      </g>
     </g>
     <g id="text_11">
      <!-- 200 -->
      <g transform="translate(45.095 312.571549194)scale(0.12 -0.12)">
       <use xlink:href="#BitstreamVeraSans-Roman-32"/>
       <use x="63.623046875" xlink:href="#BitstreamVeraSans-Roman-30"/>
       <use x="127.24609375" xlink:href="#BitstreamVeraSans-Roman-30"/>
      </g>
     </g>
    </g>
    <g id="ytick_4">
     <g id="line2d_30">
      <g>
       <use style="stroke:#000000;stroke-width:0.5;" x="72.0" xlink:href="#m9fa29fe3f8" y="269.490448792"/>
      </g>
     </g>
     <g id="line2d_31">
      <g>
       <use style="stroke:#000000;stroke-width:0.5;" x="518.4" xlink:href="#mb00ecd3a0a" y="269.490448792"/>
      </g>
     </g>
     <g id="text_12">
      <!-- 300 -->
      <defs>
       <path d="M 40.578125 39.3125 
Q 47.65625 37.796875 51.625 33 
Q 55.609375 28.21875 55.609375 21.1875 
Q 55.609375 10.40625 48.1875 4.484375 
Q 40.765625 -1.421875 27.09375 -1.421875 
Q 22.515625 -1.421875 17.65625 -0.515625 
Q 12.796875 0.390625 7.625 2.203125 
L 7.625 11.71875 
Q 11.71875 9.328125 16.59375 8.109375 
Q 21.484375 6.890625 26.8125 6.890625 
Q 36.078125 6.890625 40.9375 10.546875 
Q 45.796875 14.203125 45.796875 21.1875 
Q 45.796875 27.640625 41.28125 31.265625 
Q 36.765625 34.90625 28.71875 34.90625 
L 20.21875 34.90625 
L 20.21875 43.015625 
L 29.109375 43.015625 
Q 36.375 43.015625 40.234375 45.921875 
Q 44.09375 48.828125 44.09375 54.296875 
Q 44.09375 59.90625 40.109375 62.90625 
Q 36.140625 65.921875 28.71875 65.921875 
Q 24.65625 65.921875 20.015625 65.03125 
Q 15.375 64.15625 9.8125 62.3125 
L 9.8125 71.09375 
Q 15.4375 72.65625 20.34375 73.4375 
Q 25.25 74.21875 29.59375 74.21875 
Q 40.828125 74.21875 47.359375 69.109375 
Q 53.90625 64.015625 53.90625 55.328125 
Q 53.90625 49.265625 50.4375 45.09375 
Q 46.96875 40.921875 40.578125 39.3125 
" id="BitstreamVeraSans-Roman-33"/>
      </defs>
      <g transform="translate(45.095 272.801698792)scale(0.12 -0.12)">
       <use xlink:href="#BitstreamVeraSans-Roman-33"/>
       <use x="63.623046875" xlink:href="#BitstreamVeraSans-Roman-30"/>
       <use x="127.24609375" xlink:href="#BitstreamVeraSans-Roman-30"/>
      </g>
     </g>
    </g>
    <g id="ytick_5">
     <g id="line2d_32">
      <g>
       <use style="stroke:#000000;stroke-width:0.5;" x="72.0" xlink:href="#m9fa29fe3f8" y="229.720598389"/>
      </g>
     </g>
     <g id="line2d_33">
      <g>
       <use style="stroke:#000000;stroke-width:0.5;" x="518.4" xlink:href="#mb00ecd3a0a" y="229.720598389"/>
      </g>
     </g>
     <g id="text_13">
      <!-- 400 -->
      <g transform="translate(45.095 233.031848389)scale(0.12 -0.12)">
       <use xlink:href="#BitstreamVeraSans-Roman-34"/>
       <use x="63.623046875" xlink:href="#BitstreamVeraSans-Roman-30"/>
       <use x="127.24609375" xlink:href="#BitstreamVeraSans-Roman-30"/>
      </g>
     </g>
    </g>
    <g id="ytick_6">
     <g id="line2d_34">
      <g>
       <use style="stroke:#000000;stroke-width:0.5;" x="72.0" xlink:href="#m9fa29fe3f8" y="189.950747986"/>
      </g>
     </g>
     <g id="line2d_35">
      <g>
       <use style="stroke:#000000;stroke-width:0.5;" x="518.4" xlink:href="#mb00ecd3a0a" y="189.950747986"/>
      </g>
     </g>
     <g id="text_14">
      <!-- 500 -->
      <defs>
       <path d="M 10.796875 72.90625 
L 49.515625 72.90625 
L 49.515625 64.59375 
L 19.828125 64.59375 
L 19.828125 46.734375 
Q 21.96875 47.46875 24.109375 47.828125 
Q 26.265625 48.1875 28.421875 48.1875 
Q 40.625 48.1875 47.75 41.5 
Q 54.890625 34.8125 54.890625 23.390625 
Q 54.890625 11.625 47.5625 5.09375 
Q 40.234375 -1.421875 26.90625 -1.421875 
Q 22.3125 -1.421875 17.546875 -0.640625 
Q 12.796875 0.140625 7.71875 1.703125 
L 7.71875 11.625 
Q 12.109375 9.234375 16.796875 8.0625 
Q 21.484375 6.890625 26.703125 6.890625 
Q 35.15625 6.890625 40.078125 11.328125 
Q 45.015625 15.765625 45.015625 23.390625 
Q 45.015625 31 40.078125 35.4375 
Q 35.15625 39.890625 26.703125 39.890625 
Q 22.75 39.890625 18.8125 39.015625 
Q 14.890625 38.140625 10.796875 36.28125 
z
" id="BitstreamVeraSans-Roman-35"/>
      </defs>
      <g transform="translate(45.095 193.261997986)scale(0.12 -0.12)">
       <use xlink:href="#BitstreamVeraSans-Roman-35"/>
       <use x="63.623046875" xlink:href="#BitstreamVeraSans-Roman-30"/>
       <use x="127.24609375" xlink:href="#BitstreamVeraSans-Roman-30"/>
      </g>
     </g>
    </g>
    <g id="ytick_7">
     <g id="line2d_36">
      <g>
       <use style="stroke:#000000;stroke-width:0.5;" x="72.0" xlink:href="#m9fa29fe3f8" y="150.180897583"/>
      </g>
     </g>
     <g id="line2d_37">
      <g>
       <use style="stroke:#000000;stroke-width:0.5;" x="518.4" xlink:href="#mb00ecd3a0a" y="150.180897583"/>
      </g>
     </g>
     <g id="text_15">
      <!-- 600 -->
      <g transform="translate(45.095 153.492147583)scale(0.12 -0.12)">
       <use xlink:href="#BitstreamVeraSans-Roman-36"/>
       <use x="63.623046875" xlink:href="#BitstreamVeraSans-Roman-30"/>
       <use x="127.24609375" xlink:href="#BitstreamVeraSans-Roman-30"/>
      </g>
     </g>
    </g>
    <g id="ytick_8">
     <g id="line2d_38">
      <g>
       <use style="stroke:#000000;stroke-width:0.5;" x="72.0" xlink:href="#m9fa29fe3f8" y="110.411047181"/>
      </g>
     </g>
     <g id="line2d_39">
      <g>
       <use style="stroke:#000000;stroke-width:0.5;" x="518.4" xlink:href="#mb00ecd3a0a" y="110.411047181"/>
      </g>
     </g>
     <g id="text_16">
      <!-- 700 -->
      <defs>
       <path d="M 8.203125 72.90625 
L 55.078125 72.90625 
L 55.078125 68.703125 
L 28.609375 0 
L 18.3125 0 
L 43.21875 64.59375 
L 8.203125 64.59375 
z
" id="BitstreamVeraSans-Roman-37"/>
      </defs>
      <g transform="translate(45.095 113.722297181)scale(0.12 -0.12)">
       <use xlink:href="#BitstreamVeraSans-Roman-37"/>
       <use x="63.623046875" xlink:href="#BitstreamVeraSans-Roman-30"/>
       <use x="127.24609375" xlink:href="#BitstreamVeraSans-Roman-30"/>
      </g>
     </g>
    </g>
    <g id="ytick_9">
     <g id="line2d_40">
      <g>
       <use style="stroke:#000000;stroke-width:0.5;" x="72.0" xlink:href="#m9fa29fe3f8" y="70.6411967779"/>
      </g>
     </g>
     <g id="line2d_41">
      <g>
       <use style="stroke:#000000;stroke-width:0.5;" x="518.4" xlink:href="#mb00ecd3a0a" y="70.6411967779"/>
      </g>
     </g>
     <g id="text_17">
      <!-- 800 -->
      <g transform="translate(45.095 73.9524467779)scale(0.12 -0.12)">
       <use xlink:href="#BitstreamVeraSans-Roman-38"/>
       <use x="63.623046875" xlink:href="#BitstreamVeraSans-Roman-30"/>
       <use x="127.24609375" xlink:href="#BitstreamVeraSans-Roman-30"/>
      </g>
     </g>
    </g>
    <g id="text_18">
     <!-- Price (€) -->
     <defs>
      <path d="M 9.421875 54.6875 
L 18.40625 54.6875 
L 18.40625 0 
L 9.421875 0 
z
M 9.421875 75.984375 
L 18.40625 75.984375 
L 18.40625 64.59375 
L 9.421875 64.59375 
z
" id="BitstreamVeraSans-Roman-69"/>
      <path d="M 31 75.875 
Q 24.46875 64.65625 21.28125 53.65625 
Q 18.109375 42.671875 18.109375 31.390625 
Q 18.109375 20.125 21.3125 9.0625 
Q 24.515625 -2 31 -13.1875 
L 23.1875 -13.1875 
Q 15.875 -1.703125 12.234375 9.375 
Q 8.59375 20.453125 8.59375 31.390625 
Q 8.59375 42.28125 12.203125 53.3125 
Q 15.828125 64.359375 23.1875 75.875 
z
" id="BitstreamVeraSans-Roman-28"/>
      <path d="M 8.015625 75.875 
L 15.828125 75.875 
Q 23.140625 64.359375 26.78125 53.3125 
Q 30.421875 42.28125 30.421875 31.390625 
Q 30.421875 20.453125 26.78125 9.375 
Q 23.140625 -1.703125 15.828125 -13.1875 
L 8.015625 -13.1875 
Q 14.5 -2 17.703125 9.0625 
Q 20.90625 20.125 20.90625 31.390625 
Q 20.90625 42.671875 17.703125 53.65625 
Q 14.5 64.65625 8.015625 75.875 
" id="BitstreamVeraSans-Roman-29"/>
      <path d="M 19.671875 64.796875 
L 19.671875 37.40625 
L 32.078125 37.40625 
Q 38.96875 37.40625 42.71875 40.96875 
Q 46.484375 44.53125 46.484375 51.125 
Q 46.484375 57.671875 42.71875 61.234375 
Q 38.96875 64.796875 32.078125 64.796875 
z
M 9.8125 72.90625 
L 32.078125 72.90625 
Q 44.34375 72.90625 50.609375 67.359375 
Q 56.890625 61.8125 56.890625 51.125 
Q 56.890625 40.328125 50.609375 34.8125 
Q 44.34375 29.296875 32.078125 29.296875 
L 19.671875 29.296875 
L 19.671875 0 
L 9.8125 0 
z
" id="BitstreamVeraSans-Roman-50"/>
      <path d="M 48.78125 52.59375 
L 48.78125 44.1875 
Q 44.96875 46.296875 41.140625 47.34375 
Q 37.3125 48.390625 33.40625 48.390625 
Q 24.65625 48.390625 19.8125 42.84375 
Q 14.984375 37.3125 14.984375 27.296875 
Q 14.984375 17.28125 19.8125 11.734375 
Q 24.65625 6.203125 33.40625 6.203125 
Q 37.3125 6.203125 41.140625 7.25 
Q 44.96875 8.296875 48.78125 10.40625 
L 48.78125 2.09375 
Q 45.015625 0.34375 40.984375 -0.53125 
Q 36.96875 -1.421875 32.421875 -1.421875 
Q 20.0625 -1.421875 12.78125 6.34375 
Q 5.515625 14.109375 5.515625 27.296875 
Q 5.515625 40.671875 12.859375 48.328125 
Q 20.21875 56 33.015625 56 
Q 37.15625 56 41.109375 55.140625 
Q 45.0625 54.296875 48.78125 52.59375 
" id="BitstreamVeraSans-Roman-63"/>
      <path d="M 56.984375 67.28125 
L 56.984375 56.890625 
Q 52.546875 62.015625 48.40625 64.203125 
Q 44.28125 66.40625 39.3125 66.40625 
Q 31.640625 66.40625 26.703125 61.515625 
Q 21.78125 56.640625 20.21875 47.515625 
L 48.390625 47.515625 
L 45.703125 41.5 
L 19.4375 41.5 
Q 19.34375 40.328125 19.3125 39.203125 
Q 19.28125 38.09375 19.28125 36.375 
Q 19.28125 34.8125 19.3125 33.6875 
Q 19.34375 32.5625 19.4375 31.390625 
L 41.21875 31.390625 
L 38.484375 25.390625 
L 20.21875 25.390625 
Q 21.78125 16.265625 26.703125 11.328125 
Q 31.640625 6.390625 39.3125 6.390625 
Q 44.28125 6.390625 48.40625 8.59375 
Q 52.546875 10.796875 56.984375 15.921875 
L 56.984375 5.609375 
Q 52.640625 2.09375 48.125 0.328125 
Q 43.609375 -1.421875 38.921875 -1.421875 
Q 27.34375 -1.421875 19.796875 5.65625 
Q 12.25 12.75 10.296875 25.390625 
L 0 25.390625 
L 2.6875 31.390625 
L 9.46875 31.390625 
Q 9.46875 32.515625 9.4375 33.65625 
Q 9.421875 34.8125 9.421875 36.375 
Q 9.421875 38.09375 9.4375 39.234375 
Q 9.46875 40.375 9.46875 41.5 
L 0 41.5 
L 2.6875 47.515625 
L 10.296875 47.515625 
Q 12.25 60.0625 19.8125 67.140625 
Q 27.390625 74.21875 38.921875 74.21875 
Q 43.703125 74.21875 48.21875 72.484375 
Q 52.734375 70.75 56.984375 67.28125 
" id="BitstreamVeraSans-Roman-20ac"/>
      <path id="BitstreamVeraSans-Roman-20"/>
     </defs>
     <g transform="translate(37.599375 241.1475)rotate(-90.0)scale(0.12 -0.12)">
      <use xlink:href="#BitstreamVeraSans-Roman-50"/>
      <use x="60.287109375" xlink:href="#BitstreamVeraSans-Roman-72"/>
      <use x="101.400390625" xlink:href="#BitstreamVeraSans-Roman-69"/>
      <use x="129.18359375" xlink:href="#BitstreamVeraSans-Roman-63"/>
      <use x="184.1640625" xlink:href="#BitstreamVeraSans-Roman-65"/>
      <use x="245.6875" xlink:href="#BitstreamVeraSans-Roman-20"/>
      <use x="277.474609375" xlink:href="#BitstreamVeraSans-Roman-28"/>
      <use x="316.48828125" xlink:href="#BitstreamVeraSans-Roman-20ac"/>
      <use x="380.111328125" xlink:href="#BitstreamVeraSans-Roman-29"/>
     </g>
    </g>
   </g>
   <g id="text_19">
    <!-- Season Tickets -->
    <defs>
     <path d="M 53.515625 70.515625 
L 53.515625 60.890625 
Q 47.90625 63.578125 42.921875 64.890625 
Q 37.9375 66.21875 33.296875 66.21875 
Q 25.25 66.21875 20.875 63.09375 
Q 16.5 59.96875 16.5 54.203125 
Q 16.5 49.359375 19.40625 46.890625 
Q 22.3125 44.4375 30.421875 42.921875 
L 36.375 41.703125 
Q 47.40625 39.59375 52.65625 34.296875 
Q 57.90625 29 57.90625 20.125 
Q 57.90625 9.515625 50.796875 4.046875 
Q 43.703125 -1.421875 29.984375 -1.421875 
Q 24.8125 -1.421875 18.96875 -0.25 
Q 13.140625 0.921875 6.890625 3.21875 
L 6.890625 13.375 
Q 12.890625 10.015625 18.65625 8.296875 
Q 24.421875 6.59375 29.984375 6.59375 
Q 38.421875 6.59375 43.015625 9.90625 
Q 47.609375 13.234375 47.609375 19.390625 
Q 47.609375 24.75 44.3125 27.78125 
Q 41.015625 30.8125 33.5 32.328125 
L 27.484375 33.5 
Q 16.453125 35.6875 11.515625 40.375 
Q 6.59375 45.0625 6.59375 53.421875 
Q 6.59375 63.09375 13.40625 68.65625 
Q 20.21875 74.21875 32.171875 74.21875 
Q 37.3125 74.21875 42.625 73.28125 
Q 47.953125 72.359375 53.515625 70.515625 
" id="BitstreamVeraSans-Roman-53"/>
     <path d="M -0.296875 72.90625 
L 61.375 72.90625 
L 61.375 64.59375 
L 35.5 64.59375 
L 35.5 0 
L 25.59375 0 
L 25.59375 64.59375 
L -0.296875 64.59375 
z
" id="BitstreamVeraSans-Roman-54"/>
     <path d="M 18.3125 70.21875 
L 18.3125 54.6875 
L 36.8125 54.6875 
L 36.8125 47.703125 
L 18.3125 47.703125 
L 18.3125 18.015625 
Q 18.3125 11.328125 20.140625 9.421875 
Q 21.96875 7.515625 27.59375 7.515625 
L 36.8125 7.515625 
L 36.8125 0 
L 27.59375 0 
Q 17.1875 0 13.234375 3.875 
Q 9.28125 7.765625 9.28125 18.015625 
L 9.28125 47.703125 
L 2.6875 47.703125 
L 2.6875 54.6875 
L 9.28125 54.6875 
L 9.28125 70.21875 
z
" id="BitstreamVeraSans-Roman-74"/>
     <path d="M 30.609375 48.390625 
Q 23.390625 48.390625 19.1875 42.75 
Q 14.984375 37.109375 14.984375 27.296875 
Q 14.984375 17.484375 19.15625 11.84375 
Q 23.34375 6.203125 30.609375 6.203125 
Q 37.796875 6.203125 41.984375 11.859375 
Q 46.1875 17.53125 46.1875 27.296875 
Q 46.1875 37.015625 41.984375 42.703125 
Q 37.796875 48.390625 30.609375 48.390625 
M 30.609375 56 
Q 42.328125 56 49.015625 48.375 
Q 55.71875 40.765625 55.71875 27.296875 
Q 55.71875 13.875 49.015625 6.21875 
Q 42.328125 -1.421875 30.609375 -1.421875 
Q 18.84375 -1.421875 12.171875 6.21875 
Q 5.515625 13.875 5.515625 27.296875 
Q 5.515625 40.765625 12.171875 48.375 
Q 18.84375 56 30.609375 56 
" id="BitstreamVeraSans-Roman-6f"/>
     <path d="M 54.890625 33.015625 
L 54.890625 0 
L 45.90625 0 
L 45.90625 32.71875 
Q 45.90625 40.484375 42.875 44.328125 
Q 39.84375 48.1875 33.796875 48.1875 
Q 26.515625 48.1875 22.3125 43.546875 
Q 18.109375 38.921875 18.109375 30.90625 
L 18.109375 0 
L 9.078125 0 
L 9.078125 54.6875 
L 18.109375 54.6875 
L 18.109375 46.1875 
Q 21.34375 51.125 25.703125 53.5625 
Q 30.078125 56 35.796875 56 
Q 45.21875 56 50.046875 50.171875 
Q 54.890625 44.34375 54.890625 33.015625 
" id="BitstreamVeraSans-Roman-6e"/>
     <path d="M 44.28125 53.078125 
L 44.28125 44.578125 
Q 40.484375 46.53125 36.375 47.5 
Q 32.28125 48.484375 27.875 48.484375 
Q 21.1875 48.484375 17.84375 46.4375 
Q 14.5 44.390625 14.5 40.28125 
Q 14.5 37.15625 16.890625 35.375 
Q 19.28125 33.59375 26.515625 31.984375 
L 29.59375 31.296875 
Q 39.15625 29.25 43.1875 25.515625 
Q 47.21875 21.78125 47.21875 15.09375 
Q 47.21875 7.46875 41.1875 3.015625 
Q 35.15625 -1.421875 24.609375 -1.421875 
Q 20.21875 -1.421875 15.453125 -0.5625 
Q 10.6875 0.296875 5.421875 2 
L 5.421875 11.28125 
Q 10.40625 8.6875 15.234375 7.390625 
Q 20.0625 6.109375 24.8125 6.109375 
Q 31.15625 6.109375 34.5625 8.28125 
Q 37.984375 10.453125 37.984375 14.40625 
Q 37.984375 18.0625 35.515625 20.015625 
Q 33.0625 21.96875 24.703125 23.78125 
L 21.578125 24.515625 
Q 13.234375 26.265625 9.515625 29.90625 
Q 5.8125 33.546875 5.8125 39.890625 
Q 5.8125 47.609375 11.28125 51.796875 
Q 16.75 56 26.8125 56 
Q 31.78125 56 36.171875 55.265625 
Q 40.578125 54.546875 44.28125 53.078125 
" id="BitstreamVeraSans-Roman-73"/>
     <path d="M 9.078125 75.984375 
L 18.109375 75.984375 
L 18.109375 31.109375 
L 44.921875 54.6875 
L 56.390625 54.6875 
L 27.390625 29.109375 
L 57.625 0 
L 45.90625 0 
L 18.109375 26.703125 
L 18.109375 0 
L 9.078125 0 
z
" id="BitstreamVeraSans-Roman-6b"/>
    </defs>
    <g transform="translate(241.25625 38.2)scale(0.144 -0.144)">
     <use xlink:href="#BitstreamVeraSans-Roman-53"/>
     <use x="63.4765625" xlink:href="#BitstreamVeraSans-Roman-65"/>
     <use x="125.0" xlink:href="#BitstreamVeraSans-Roman-61"/>
     <use x="186.279296875" xlink:href="#BitstreamVeraSans-Roman-73"/>
     <use x="238.37890625" xlink:href="#BitstreamVeraSans-Roman-6f"/>
     <use x="299.560546875" xlink:href="#BitstreamVeraSans-Roman-6e"/>
     <use x="362.939453125" xlink:href="#BitstreamVeraSans-Roman-20"/>
     <use x="394.7265625" xlink:href="#BitstreamVeraSans-Roman-54"/>
     <use x="455.763671875" xlink:href="#BitstreamVeraSans-Roman-69"/>
     <use x="483.546875" xlink:href="#BitstreamVeraSans-Roman-63"/>
     <use x="538.52734375" xlink:href="#BitstreamVeraSans-Roman-6b"/>
     <use x="596.390625" xlink:href="#BitstreamVeraSans-Roman-65"/>
     <use x="657.9140625" xlink:href="#BitstreamVeraSans-Roman-74"/>
     <use x="697.123046875" xlink:href="#BitstreamVeraSans-Roman-73"/>
    </g>
   </g>
   <g id="legend_1">
    <g id="patch_7">
     <path d="M 402.735 386.8 
L 514.8 386.8 
Q 516.4 386.8 516.4 385.2 
L 516.4 280.3175 
Q 516.4 278.7175 514.8 278.7175 
L 402.735 278.7175 
Q 401.135 278.7175 401.135 280.3175 
L 401.135 385.2 
Q 401.135 386.8 402.735 386.8 
z
" style="fill:#4c4c4c;opacity:0.5;stroke:#4c4c4c;stroke-linejoin:miter;"/>
    </g>
    <g id="patch_8">
     <path d="M 400.735 384.8 
L 512.8 384.8 
Q 514.4 384.8 514.4 383.2 
L 514.4 278.3175 
Q 514.4 276.7175 512.8 276.7175 
L 400.735 276.7175 
Q 399.135 276.7175 399.135 278.3175 
L 399.135 383.2 
Q 399.135 384.8 400.735 384.8 
z
" style="fill:#ffffff;stroke:#000000;stroke-linejoin:miter;"/>
    </g>
    <g id="line2d_42">
     <path d="M 404.735 283.19625 
L 415.935 283.19625 
" style="fill:none;stroke:#0000ff;stroke-linecap:square;"/>
    </g>
    <g id="line2d_43">
     <g>
      <use style="fill:#0000ff;stroke:#0000ff;stroke-width:0.5;" x="404.735" xlink:href="#mb6955045e7" y="283.19625"/>
      <use style="fill:#0000ff;stroke:#0000ff;stroke-width:0.5;" x="415.935" xlink:href="#mb6955045e7" y="283.19625"/>
     </g>
    </g>
    <g id="text_20">
     <!-- Montafon -->
     <defs>
      <path d="M 9.8125 72.90625 
L 24.515625 72.90625 
L 43.109375 23.296875 
L 61.8125 72.90625 
L 76.515625 72.90625 
L 76.515625 0 
L 66.890625 0 
L 66.890625 64.015625 
L 48.09375 14.015625 
L 38.1875 14.015625 
L 19.390625 64.015625 
L 19.390625 0 
L 9.8125 0 
z
" id="BitstreamVeraSans-Roman-4d"/>
      <path d="M 37.109375 75.984375 
L 37.109375 68.5 
L 28.515625 68.5 
Q 23.6875 68.5 21.796875 66.546875 
Q 19.921875 64.59375 19.921875 59.515625 
L 19.921875 54.6875 
L 34.71875 54.6875 
L 34.71875 47.703125 
L 19.921875 47.703125 
L 19.921875 0 
L 10.890625 0 
L 10.890625 47.703125 
L 2.296875 47.703125 
L 2.296875 54.6875 
L 10.890625 54.6875 
L 10.890625 58.5 
Q 10.890625 67.625 15.140625 71.796875 
Q 19.390625 75.984375 28.609375 75.984375 
z
" id="BitstreamVeraSans-Roman-66"/>
     </defs>
     <g transform="translate(424.735 285.99625)scale(0.08 -0.08)">
      <use xlink:href="#BitstreamVeraSans-Roman-4d"/>
      <use x="86.279296875" xlink:href="#BitstreamVeraSans-Roman-6f"/>
      <use x="147.4609375" xlink:href="#BitstreamVeraSans-Roman-6e"/>
      <use x="210.83984375" xlink:href="#BitstreamVeraSans-Roman-74"/>
      <use x="250.048828125" xlink:href="#BitstreamVeraSans-Roman-61"/>
      <use x="311.328125" xlink:href="#BitstreamVeraSans-Roman-66"/>
      <use x="346.533203125" xlink:href="#BitstreamVeraSans-Roman-6f"/>
      <use x="407.71484375" xlink:href="#BitstreamVeraSans-Roman-6e"/>
     </g>
    </g>
    <g id="line2d_44">
     <path d="M 404.735 294.93875 
L 415.935 294.93875 
" style="fill:none;stroke:#008000;stroke-linecap:square;"/>
    </g>
    <g id="line2d_45">
     <g>
      <use style="fill:#008000;stroke:#008000;stroke-width:0.5;" x="404.735" xlink:href="#m0b7a4acae1" y="294.93875"/>
      <use style="fill:#008000;stroke:#008000;stroke-width:0.5;" x="415.935" xlink:href="#m0b7a4acae1" y="294.93875"/>
     </g>
    </g>
    <g id="text_21">
     <!-- Montafon (Presale) -->
     <defs>
      <path d="M 9.421875 75.984375 
L 18.40625 75.984375 
L 18.40625 0 
L 9.421875 0 
z
" id="BitstreamVeraSans-Roman-6c"/>
     </defs>
     <g transform="translate(424.735 297.73875)scale(0.08 -0.08)">
      <use xlink:href="#BitstreamVeraSans-Roman-4d"/>
      <use x="86.279296875" xlink:href="#BitstreamVeraSans-Roman-6f"/>
      <use x="147.4609375" xlink:href="#BitstreamVeraSans-Roman-6e"/>
      <use x="210.83984375" xlink:href="#BitstreamVeraSans-Roman-74"/>
      <use x="250.048828125" xlink:href="#BitstreamVeraSans-Roman-61"/>
      <use x="311.328125" xlink:href="#BitstreamVeraSans-Roman-66"/>
      <use x="346.533203125" xlink:href="#BitstreamVeraSans-Roman-6f"/>
      <use x="407.71484375" xlink:href="#BitstreamVeraSans-Roman-6e"/>
      <use x="471.09375" xlink:href="#BitstreamVeraSans-Roman-20"/>
      <use x="502.880859375" xlink:href="#BitstreamVeraSans-Roman-28"/>
      <use x="541.89453125" xlink:href="#BitstreamVeraSans-Roman-50"/>
      <use x="602.181640625" xlink:href="#BitstreamVeraSans-Roman-72"/>
      <use x="643.263671875" xlink:href="#BitstreamVeraSans-Roman-65"/>
      <use x="704.787109375" xlink:href="#BitstreamVeraSans-Roman-73"/>
      <use x="756.88671875" xlink:href="#BitstreamVeraSans-Roman-61"/>
      <use x="818.166015625" xlink:href="#BitstreamVeraSans-Roman-6c"/>
      <use x="845.94921875" xlink:href="#BitstreamVeraSans-Roman-65"/>
      <use x="907.47265625" xlink:href="#BitstreamVeraSans-Roman-29"/>
     </g>
    </g>
    <g id="line2d_46">
     <path d="M 404.735 306.68125 
L 415.935 306.68125 
" style="fill:none;stroke:#ff0000;stroke-linecap:square;"/>
    </g>
    <g id="line2d_47">
     <g>
      <use style="fill:#ff0000;stroke:#ff0000;stroke-width:0.5;" x="404.735" xlink:href="#me662a69fb9" y="306.68125"/>
      <use style="fill:#ff0000;stroke:#ff0000;stroke-width:0.5;" x="415.935" xlink:href="#me662a69fb9" y="306.68125"/>
     </g>
    </g>
    <g id="text_22">
     <!-- Lech &amp; Zurs -->
     <defs>
      <path d="M 5.609375 72.90625 
L 62.890625 72.90625 
L 62.890625 65.375 
L 16.796875 8.296875 
L 64.015625 8.296875 
L 64.015625 0 
L 4.5 0 
L 4.5 7.515625 
L 50.59375 64.59375 
L 5.609375 64.59375 
z
" id="BitstreamVeraSans-Roman-5a"/>
      <path d="M 9.8125 72.90625 
L 19.671875 72.90625 
L 19.671875 8.296875 
L 55.171875 8.296875 
L 55.171875 0 
L 9.8125 0 
z
" id="BitstreamVeraSans-Roman-4c"/>
      <path d="M 8.5 21.578125 
L 8.5 54.6875 
L 17.484375 54.6875 
L 17.484375 21.921875 
Q 17.484375 14.15625 20.5 10.265625 
Q 23.53125 6.390625 29.59375 6.390625 
Q 36.859375 6.390625 41.078125 11.03125 
Q 45.3125 15.671875 45.3125 23.6875 
L 45.3125 54.6875 
L 54.296875 54.6875 
L 54.296875 0 
L 45.3125 0 
L 45.3125 8.40625 
Q 42.046875 3.421875 37.71875 1 
Q 33.40625 -1.421875 27.6875 -1.421875 
Q 18.265625 -1.421875 13.375 4.4375 
Q 8.5 10.296875 8.5 21.578125 
" id="BitstreamVeraSans-Roman-75"/>
      <path d="M 54.890625 33.015625 
L 54.890625 0 
L 45.90625 0 
L 45.90625 32.71875 
Q 45.90625 40.484375 42.875 44.328125 
Q 39.84375 48.1875 33.796875 48.1875 
Q 26.515625 48.1875 22.3125 43.546875 
Q 18.109375 38.921875 18.109375 30.90625 
L 18.109375 0 
L 9.078125 0 
L 9.078125 75.984375 
L 18.109375 75.984375 
L 18.109375 46.1875 
Q 21.34375 51.125 25.703125 53.5625 
Q 30.078125 56 35.796875 56 
Q 45.21875 56 50.046875 50.171875 
Q 54.890625 44.34375 54.890625 33.015625 
" id="BitstreamVeraSans-Roman-68"/>
      <path d="M 24.3125 39.203125 
Q 19.875 35.25 17.796875 31.3125 
Q 15.71875 27.390625 15.71875 23.09375 
Q 15.71875 15.96875 20.890625 11.234375 
Q 26.078125 6.5 33.890625 6.5 
Q 38.53125 6.5 42.578125 8.03125 
Q 46.625 9.578125 50.203125 12.703125 
z
M 31.203125 44.671875 
L 56 19.28125 
Q 58.890625 23.640625 60.5 28.59375 
Q 62.109375 33.546875 62.40625 39.109375 
L 71.484375 39.109375 
Q 70.90625 32.671875 68.359375 26.359375 
Q 65.828125 20.0625 61.28125 13.921875 
L 74.90625 0 
L 62.59375 0 
L 55.609375 7.171875 
Q 50.53125 2.828125 44.96875 0.703125 
Q 39.40625 -1.421875 33.015625 -1.421875 
Q 21.234375 -1.421875 13.765625 5.296875 
Q 6.296875 12.015625 6.296875 22.515625 
Q 6.296875 28.765625 9.5625 34.25 
Q 12.84375 39.75 19.390625 44.578125 
Q 17.046875 47.65625 15.8125 50.703125 
Q 14.59375 53.765625 14.59375 56.6875 
Q 14.59375 64.59375 20.015625 69.40625 
Q 25.4375 74.21875 34.421875 74.21875 
Q 38.484375 74.21875 42.5 73.34375 
Q 46.53125 72.46875 50.6875 70.703125 
L 50.6875 61.8125 
Q 46.4375 64.109375 42.578125 65.296875 
Q 38.71875 66.5 35.40625 66.5 
Q 30.28125 66.5 27.078125 63.78125 
Q 23.875 61.078125 23.875 56.78125 
Q 23.875 54.296875 25.3125 51.78125 
Q 26.765625 49.265625 31.203125 44.671875 
" id="BitstreamVeraSans-Roman-26"/>
     </defs>
     <g transform="translate(424.735 309.48125)scale(0.08 -0.08)">
      <use xlink:href="#BitstreamVeraSans-Roman-4c"/>
      <use x="55.697265625" xlink:href="#BitstreamVeraSans-Roman-65"/>
      <use x="117.220703125" xlink:href="#BitstreamVeraSans-Roman-63"/>
      <use x="172.201171875" xlink:href="#BitstreamVeraSans-Roman-68"/>
      <use x="235.580078125" xlink:href="#BitstreamVeraSans-Roman-20"/>
      <use x="267.3671875" xlink:href="#BitstreamVeraSans-Roman-26"/>
      <use x="345.345703125" xlink:href="#BitstreamVeraSans-Roman-20"/>
      <use x="377.1328125" xlink:href="#BitstreamVeraSans-Roman-5a"/>
      <use x="445.638671875" xlink:href="#BitstreamVeraSans-Roman-75"/>
      <use x="509.017578125" xlink:href="#BitstreamVeraSans-Roman-72"/>
      <use x="550.130859375" xlink:href="#BitstreamVeraSans-Roman-73"/>
     </g>
    </g>
    <g id="line2d_48">
     <path d="M 404.735 318.42375 
L 415.935 318.42375 
" style="fill:none;stroke:#00bfbf;stroke-linecap:square;"/>
    </g>
    <g id="line2d_49">
     <g>
      <use style="fill:#00bfbf;stroke:#00bfbf;stroke-width:0.5;" x="404.735" xlink:href="#mde1abc7054" y="318.42375"/>
      <use style="fill:#00bfbf;stroke:#00bfbf;stroke-width:0.5;" x="415.935" xlink:href="#mde1abc7054" y="318.42375"/>
     </g>
    </g>
    <g id="text_23">
     <!-- Brandnertal -->
     <defs>
      <path d="M 45.40625 46.390625 
L 45.40625 75.984375 
L 54.390625 75.984375 
L 54.390625 0 
L 45.40625 0 
L 45.40625 8.203125 
Q 42.578125 3.328125 38.25 0.953125 
Q 33.9375 -1.421875 27.875 -1.421875 
Q 17.96875 -1.421875 11.734375 6.484375 
Q 5.515625 14.40625 5.515625 27.296875 
Q 5.515625 40.1875 11.734375 48.09375 
Q 17.96875 56 27.875 56 
Q 33.9375 56 38.25 53.625 
Q 42.578125 51.265625 45.40625 46.390625 
M 14.796875 27.296875 
Q 14.796875 17.390625 18.875 11.75 
Q 22.953125 6.109375 30.078125 6.109375 
Q 37.203125 6.109375 41.296875 11.75 
Q 45.40625 17.390625 45.40625 27.296875 
Q 45.40625 37.203125 41.296875 42.84375 
Q 37.203125 48.484375 30.078125 48.484375 
Q 22.953125 48.484375 18.875 42.84375 
Q 14.796875 37.203125 14.796875 27.296875 
" id="BitstreamVeraSans-Roman-64"/>
      <path d="M 19.671875 34.8125 
L 19.671875 8.109375 
L 35.5 8.109375 
Q 43.453125 8.109375 47.28125 11.40625 
Q 51.125 14.703125 51.125 21.484375 
Q 51.125 28.328125 47.28125 31.5625 
Q 43.453125 34.8125 35.5 34.8125 
z
M 19.671875 64.796875 
L 19.671875 42.828125 
L 34.28125 42.828125 
Q 41.5 42.828125 45.03125 45.53125 
Q 48.578125 48.25 48.578125 53.8125 
Q 48.578125 59.328125 45.03125 62.0625 
Q 41.5 64.796875 34.28125 64.796875 
z
M 9.8125 72.90625 
L 35.015625 72.90625 
Q 46.296875 72.90625 52.390625 68.21875 
Q 58.5 63.53125 58.5 54.890625 
Q 58.5 48.1875 55.375 44.234375 
Q 52.25 40.28125 46.1875 39.3125 
Q 53.46875 37.75 57.5 32.78125 
Q 61.53125 27.828125 61.53125 20.40625 
Q 61.53125 10.640625 54.890625 5.3125 
Q 48.25 0 35.984375 0 
L 9.8125 0 
z
" id="BitstreamVeraSans-Roman-42"/>
     </defs>
     <g transform="translate(424.735 321.22375)scale(0.08 -0.08)">
      <use xlink:href="#BitstreamVeraSans-Roman-42"/>
      <use x="68.603515625" xlink:href="#BitstreamVeraSans-Roman-72"/>
      <use x="109.716796875" xlink:href="#BitstreamVeraSans-Roman-61"/>
      <use x="170.99609375" xlink:href="#BitstreamVeraSans-Roman-6e"/>
      <use x="234.375" xlink:href="#BitstreamVeraSans-Roman-64"/>
      <use x="297.8515625" xlink:href="#BitstreamVeraSans-Roman-6e"/>
      <use x="361.23046875" xlink:href="#BitstreamVeraSans-Roman-65"/>
      <use x="422.75390625" xlink:href="#BitstreamVeraSans-Roman-72"/>
      <use x="463.8671875" xlink:href="#BitstreamVeraSans-Roman-74"/>
      <use x="503.076171875" xlink:href="#BitstreamVeraSans-Roman-61"/>
      <use x="564.35546875" xlink:href="#BitstreamVeraSans-Roman-6c"/>
     </g>
    </g>
    <g id="line2d_50">
     <path d="M 404.735 330.16625 
L 415.935 330.16625 
" style="fill:none;stroke:#bf00bf;stroke-linecap:square;"/>
    </g>
    <g id="line2d_51">
     <g>
      <use style="fill:#bf00bf;stroke:#bf00bf;stroke-width:0.5;" x="404.735" xlink:href="#me8c343d7ed" y="330.16625"/>
      <use style="fill:#bf00bf;stroke:#bf00bf;stroke-width:0.5;" x="415.935" xlink:href="#me8c343d7ed" y="330.16625"/>
     </g>
    </g>
    <g id="text_24">
     <!-- Brandnertal (Presale) -->
     <g transform="translate(424.735 332.96625)scale(0.08 -0.08)">
      <use xlink:href="#BitstreamVeraSans-Roman-42"/>
      <use x="68.603515625" xlink:href="#BitstreamVeraSans-Roman-72"/>
      <use x="109.716796875" xlink:href="#BitstreamVeraSans-Roman-61"/>
      <use x="170.99609375" xlink:href="#BitstreamVeraSans-Roman-6e"/>
      <use x="234.375" xlink:href="#BitstreamVeraSans-Roman-64"/>
      <use x="297.8515625" xlink:href="#BitstreamVeraSans-Roman-6e"/>
      <use x="361.23046875" xlink:href="#BitstreamVeraSans-Roman-65"/>
      <use x="422.75390625" xlink:href="#BitstreamVeraSans-Roman-72"/>
      <use x="463.8671875" xlink:href="#BitstreamVeraSans-Roman-74"/>
      <use x="503.076171875" xlink:href="#BitstreamVeraSans-Roman-61"/>
      <use x="564.35546875" xlink:href="#BitstreamVeraSans-Roman-6c"/>
      <use x="592.138671875" xlink:href="#BitstreamVeraSans-Roman-20"/>
      <use x="623.92578125" xlink:href="#BitstreamVeraSans-Roman-28"/>
      <use x="662.939453125" xlink:href="#BitstreamVeraSans-Roman-50"/>
      <use x="723.2265625" xlink:href="#BitstreamVeraSans-Roman-72"/>
      <use x="764.30859375" xlink:href="#BitstreamVeraSans-Roman-65"/>
      <use x="825.83203125" xlink:href="#BitstreamVeraSans-Roman-73"/>
      <use x="877.931640625" xlink:href="#BitstreamVeraSans-Roman-61"/>
      <use x="939.2109375" xlink:href="#BitstreamVeraSans-Roman-6c"/>
      <use x="966.994140625" xlink:href="#BitstreamVeraSans-Roman-65"/>
      <use x="1028.517578125" xlink:href="#BitstreamVeraSans-Roman-29"/>
     </g>
    </g>
    <g id="line2d_52">
     <path d="M 404.735 341.90875 
L 415.935 341.90875 
" style="fill:none;stroke:#bfbf00;stroke-linecap:square;"/>
    </g>
    <g id="line2d_53">
     <g>
      <use style="fill:#bfbf00;stroke:#bfbf00;stroke-width:0.5;" x="404.735" xlink:href="#mf4fc0b92ca" y="341.90875"/>
      <use style="fill:#bfbf00;stroke:#bfbf00;stroke-width:0.5;" x="415.935" xlink:href="#mf4fc0b92ca" y="341.90875"/>
     </g>
    </g>
    <g id="text_25">
     <!-- 3 Taler Pass -->
     <g transform="translate(424.735 344.70875)scale(0.08 -0.08)">
      <use xlink:href="#BitstreamVeraSans-Roman-33"/>
      <use x="63.623046875" xlink:href="#BitstreamVeraSans-Roman-20"/>
      <use x="95.41015625" xlink:href="#BitstreamVeraSans-Roman-54"/>
      <use x="156.244140625" xlink:href="#BitstreamVeraSans-Roman-61"/>
      <use x="217.5234375" xlink:href="#BitstreamVeraSans-Roman-6c"/>
      <use x="245.306640625" xlink:href="#BitstreamVeraSans-Roman-65"/>
      <use x="306.830078125" xlink:href="#BitstreamVeraSans-Roman-72"/>
      <use x="347.943359375" xlink:href="#BitstreamVeraSans-Roman-20"/>
      <use x="379.73046875" xlink:href="#BitstreamVeraSans-Roman-50"/>
      <use x="439.970703125" xlink:href="#BitstreamVeraSans-Roman-61"/>
      <use x="501.25" xlink:href="#BitstreamVeraSans-Roman-73"/>
      <use x="553.349609375" xlink:href="#BitstreamVeraSans-Roman-73"/>
     </g>
    </g>
    <g id="line2d_54">
     <path d="M 404.735 353.65125 
L 415.935 353.65125 
" style="fill:none;stroke:#000000;stroke-linecap:square;"/>
    </g>
    <g id="line2d_55">
     <g>
      <use style="stroke:#000000;stroke-width:0.5;" x="404.735" xlink:href="#m109b4ce40e" y="353.65125"/>
      <use style="stroke:#000000;stroke-width:0.5;" x="415.935" xlink:href="#m109b4ce40e" y="353.65125"/>
     </g>
    </g>
    <g id="text_26">
     <!-- 2 Taler Pass (Presale) -->
     <g transform="translate(424.735 356.45125)scale(0.08 -0.08)">
      <use xlink:href="#BitstreamVeraSans-Roman-32"/>
      <use x="63.623046875" xlink:href="#BitstreamVeraSans-Roman-20"/>
      <use x="95.41015625" xlink:href="#BitstreamVeraSans-Roman-54"/>
      <use x="156.244140625" xlink:href="#BitstreamVeraSans-Roman-61"/>
      <use x="217.5234375" xlink:href="#BitstreamVeraSans-Roman-6c"/>
      <use x="245.306640625" xlink:href="#BitstreamVeraSans-Roman-65"/>
      <use x="306.830078125" xlink:href="#BitstreamVeraSans-Roman-72"/>
      <use x="347.943359375" xlink:href="#BitstreamVeraSans-Roman-20"/>
      <use x="379.73046875" xlink:href="#BitstreamVeraSans-Roman-50"/>
      <use x="439.970703125" xlink:href="#BitstreamVeraSans-Roman-61"/>
      <use x="501.25" xlink:href="#BitstreamVeraSans-Roman-73"/>
      <use x="553.349609375" xlink:href="#BitstreamVeraSans-Roman-73"/>
      <use x="605.44921875" xlink:href="#BitstreamVeraSans-Roman-20"/>
      <use x="637.236328125" xlink:href="#BitstreamVeraSans-Roman-28"/>
      <use x="676.25" xlink:href="#BitstreamVeraSans-Roman-50"/>
      <use x="736.537109375" xlink:href="#BitstreamVeraSans-Roman-72"/>
      <use x="777.619140625" xlink:href="#BitstreamVeraSans-Roman-65"/>
      <use x="839.142578125" xlink:href="#BitstreamVeraSans-Roman-73"/>
      <use x="891.2421875" xlink:href="#BitstreamVeraSans-Roman-61"/>
      <use x="952.521484375" xlink:href="#BitstreamVeraSans-Roman-6c"/>
      <use x="980.3046875" xlink:href="#BitstreamVeraSans-Roman-65"/>
      <use x="1041.828125" xlink:href="#BitstreamVeraSans-Roman-29"/>
     </g>
    </g>
    <g id="line2d_56">
     <path d="M 404.735 365.39375 
L 415.935 365.39375 
" style="fill:none;stroke:#0000ff;stroke-linecap:square;"/>
    </g>
    <g id="line2d_57">
     <g>
      <use style="fill:#0000ff;stroke:#0000ff;stroke-width:0.5;" x="404.735" xlink:href="#mb6955045e7" y="365.39375"/>
      <use style="fill:#0000ff;stroke:#0000ff;stroke-width:0.5;" x="415.935" xlink:href="#mb6955045e7" y="365.39375"/>
     </g>
    </g>
    <g id="text_27">
     <!-- Landle Card -->
     <defs>
      <path d="M 64.40625 67.28125 
L 64.40625 56.890625 
Q 59.421875 61.53125 53.78125 63.8125 
Q 48.140625 66.109375 41.796875 66.109375 
Q 29.296875 66.109375 22.65625 58.46875 
Q 16.015625 50.828125 16.015625 36.375 
Q 16.015625 21.96875 22.65625 14.328125 
Q 29.296875 6.6875 41.796875 6.6875 
Q 48.140625 6.6875 53.78125 8.984375 
Q 59.421875 11.28125 64.40625 15.921875 
L 64.40625 5.609375 
Q 59.234375 2.09375 53.4375 0.328125 
Q 47.65625 -1.421875 41.21875 -1.421875 
Q 24.65625 -1.421875 15.125 8.703125 
Q 5.609375 18.84375 5.609375 36.375 
Q 5.609375 53.953125 15.125 64.078125 
Q 24.65625 74.21875 41.21875 74.21875 
Q 47.75 74.21875 53.53125 72.484375 
Q 59.328125 70.75 64.40625 67.28125 
" id="BitstreamVeraSans-Roman-43"/>
     </defs>
     <g transform="translate(424.735 368.19375)scale(0.08 -0.08)">
      <use xlink:href="#BitstreamVeraSans-Roman-4c"/>
      <use x="55.712890625" xlink:href="#BitstreamVeraSans-Roman-61"/>
      <use x="116.9921875" xlink:href="#BitstreamVeraSans-Roman-6e"/>
      <use x="180.37109375" xlink:href="#BitstreamVeraSans-Roman-64"/>
      <use x="243.84765625" xlink:href="#BitstreamVeraSans-Roman-6c"/>
      <use x="271.630859375" xlink:href="#BitstreamVeraSans-Roman-65"/>
      <use x="333.154296875" xlink:href="#BitstreamVeraSans-Roman-20"/>
      <use x="364.94140625" xlink:href="#BitstreamVeraSans-Roman-43"/>
      <use x="434.765625" xlink:href="#BitstreamVeraSans-Roman-61"/>
      <use x="496.044921875" xlink:href="#BitstreamVeraSans-Roman-72"/>
      <use x="537.142578125" xlink:href="#BitstreamVeraSans-Roman-64"/>
     </g>
    </g>
    <g id="line2d_58">
     <path d="M 404.735 377.13625 
L 415.935 377.13625 
" style="fill:none;stroke:#008000;stroke-linecap:square;"/>
    </g>
    <g id="line2d_59">
     <g>
      <use style="fill:#008000;stroke:#008000;stroke-width:0.5;" x="404.735" xlink:href="#m0b7a4acae1" y="377.13625"/>
      <use style="fill:#008000;stroke:#008000;stroke-width:0.5;" x="415.935" xlink:href="#m0b7a4acae1" y="377.13625"/>
     </g>
    </g>
    <g id="text_28">
     <!-- Landle Card (Presale) -->
     <g transform="translate(424.735 379.93625)scale(0.08 -0.08)">
      <use xlink:href="#BitstreamVeraSans-Roman-4c"/>
      <use x="55.712890625" xlink:href="#BitstreamVeraSans-Roman-61"/>
      <use x="116.9921875" xlink:href="#BitstreamVeraSans-Roman-6e"/>
      <use x="180.37109375" xlink:href="#BitstreamVeraSans-Roman-64"/>
      <use x="243.84765625" xlink:href="#BitstreamVeraSans-Roman-6c"/>
      <use x="271.630859375" xlink:href="#BitstreamVeraSans-Roman-65"/>
      <use x="333.154296875" xlink:href="#BitstreamVeraSans-Roman-20"/>
      <use x="364.94140625" xlink:href="#BitstreamVeraSans-Roman-43"/>
      <use x="434.765625" xlink:href="#BitstreamVeraSans-Roman-61"/>
      <use x="496.044921875" xlink:href="#BitstreamVeraSans-Roman-72"/>
      <use x="537.142578125" xlink:href="#BitstreamVeraSans-Roman-64"/>
      <use x="600.619140625" xlink:href="#BitstreamVeraSans-Roman-20"/>
      <use x="632.40625" xlink:href="#BitstreamVeraSans-Roman-28"/>
      <use x="671.419921875" xlink:href="#BitstreamVeraSans-Roman-50"/>
      <use x="731.70703125" xlink:href="#BitstreamVeraSans-Roman-72"/>
      <use x="772.7890625" xlink:href="#BitstreamVeraSans-Roman-65"/>
      <use x="834.3125" xlink:href="#BitstreamVeraSans-Roman-73"/>
      <use x="886.412109375" xlink:href="#BitstreamVeraSans-Roman-61"/>
      <use x="947.69140625" xlink:href="#BitstreamVeraSans-Roman-6c"/>
      <use x="975.474609375" xlink:href="#BitstreamVeraSans-Roman-65"/>
      <use x="1036.998046875" xlink:href="#BitstreamVeraSans-Roman-29"/>
     </g>
    </g>
   </g>
  </g>
 </g>
 <defs>
  <clipPath id="p93797610db">
   <rect height="345.6" width="446.4" x="72.0" y="43.2"/>
  </clipPath>
 </defs>
</svg>
